<svg width="512" height="512" viewBox="0 0 512 512" xmlns="http://www.w3.org/2000/svg"><mask id="satori_om-id"><rect x="0" y="0" width="512" height="512" fill="#fff"/></mask><rect x="0" y="0" width="512" height="512" fill="#F7F7F4"/><mask id="satori_om-id-0"><rect x="35" y="53" width="443" height="406" fill="#fff"/></mask><g transform="translate(-24.0 0.1)"><path fill="#6E4B7E" d="M80.4 126.7L80.4 385L230.6 385L230.6 354.4L114.7 354.4L114.7 126.7L80.4 126.7ZM254.6 126.7L281.1 385L322.8 385L366.4 217.5L367.8 217.5L411.4 385L453.4 385L479.6 126.7L448.3 126.7L428.0 338.5L426.5 338.5L381.5 165.4L353.1 165.4L307.7 338.5L306.2 338.5L286.3 126.7L254.6 126.7Z "/></g></svg>